<?xml version="1.0" encoding="UTF-8" standalone="no"?>
<!-- Based on official Python logo -->

<svg
   xmlns:dc="http://purl.org/dc/elements/1.1/"
   xmlns:cc="http://creativecommons.org/ns#"
   xmlns:rdf="http://www.w3.org/1999/02/22-rdf-syntax-ns#"
   xmlns:svg="http://www.w3.org/2000/svg"
   xmlns="http://www.w3.org/2000/svg"
   xmlns:sodipodi="http://sodipodi.sourceforge.net/DTD/sodipodi-0.dtd"
   xmlns:inkscape="http://www.inkscape.org/namespaces/inkscape"
   version="1.0"
   id="svg2"
   inkscape:version="0.48.5 r10040"
   width="100%"
   height="100%"
   sodipodi:docname="python-earring.svg">
  <metadata
     id="metadata12">
    <rdf:RDF>
      <cc:Work
         rdf:about="">
        <dc:format>image/svg+xml</dc:format>
        <dc:type
           rdf:resource="http://purl.org/dc/dcmitype/StillImage" />
      </cc:Work>
    </rdf:RDF>
  </metadata>
  <defs
     id="defs10" />
  <sodipodi:namedview
     pagecolor="#ffffff"
     bordercolor="#666666"
     borderopacity="1"
     objecttolerance="10"
     gridtolerance="10"
     guidetolerance="10"
     inkscape:pageopacity="0"
     inkscape:pageshadow="2"
     inkscape:window-width="1366"
     inkscape:window-height="692"
     id="namedview8"
     showgrid="false"
     inkscape:zoom="3.5881182"
     inkscape:cx="92.515523"
     inkscape:cy="997.87732"
     inkscape:window-x="0"
     inkscape:window-y="24"
     inkscape:window-maximized="1"
     inkscape:current-layer="svg2" />
  <path
     stroke="red"
     fill="none"
     d="M 99.75,67.46875        C 71.718268,67.468752 73.46875,79.625 73.46875,79.625        L 73.5,92.21875        L 100.25,92.21875        L 100.25,96        L 62.875,96        C 62.875,96 44.9375,93.965724 44.9375,122.25        C 44.937498,150.53427 60.59375,149.53125 60.59375,149.53125        L 69.9375,149.53125        L 69.9375,136.40625        C 69.9375,136.40625 69.433848,120.75 85.34375,120.75        C 101.25365,120.75 111.875,120.75 111.875,120.75        C 111.875,120.75 126.78125,120.99096 126.78125,106.34375        C 126.78125,91.696544 126.78125,82.125 126.78125,82.125        C 126.78125,82.124998 129.04443,67.46875 99.75,67.46875 z        M 85,75.9375        C 87.661429,75.937498 89.8125,78.088571 89.8125,80.75        C 89.812502,83.411429 87.661429,85.5625 85,85.5625        C 82.338571,85.562502 80.1875,83.411429 80.1875,80.75        C 80.187498,78.088571 82.338571,75.9375 85,75.9375        z "
     id="path4" />
  <path
     stroke="green"
     fill="none"
     d="M 100.5461,177.31485        C 128.57784,177.31485 126.82735,165.1586 126.82735,165.1586        L 126.7961,152.56485        L 100.0461,152.56485        L 100.0461,148.7836        L 137.4211,148.7836        C 137.4211,148.7836 155.3586,150.81787 155.3586,122.53359        C 155.35861,94.249323 139.70235,95.252343 139.70235,95.252343        L 130.3586,95.252343        L 130.3586,108.37734        C 130.3586,108.37734 130.86226,124.03359 114.95235,124.03359        C 99.042448,124.03359 88.421098,124.03359 88.421098,124.03359        C 88.421098,124.03359 73.514848,123.79263 73.514848,138.43985        C 73.514848,153.08705 73.514848,162.6586 73.514848,162.6586        C 73.514848,162.6586 71.251668,177.31485 100.5461,177.31485 z        M 115.2961,168.8461        C 112.63467,168.8461 110.4836,166.69503 110.4836,164.0336        C 110.4836,161.37217 112.63467,159.2211 115.2961,159.2211        C 117.95753,159.2211 120.1086,161.37217 120.1086,164.0336        C 120.10861,166.69503 117.95753,168.8461 115.2961,168.8461 z "
     id="path6" />
  <path
     sodipodi:type="arc"
     style="fill:none;stroke:#000000;stroke-width:1px;stroke-linecap:butt;stroke-linejoin:miter;stroke-opacity:1"
     id="path3041"
     sodipodi:cx="93.642395"
     sodipodi:cy="123.74174"
     sodipodi:rx="65.772636"
     sodipodi:ry="105.90509"
     d="m 159.41503,123.74174 a 65.772636,105.90509 0 1 1 -131.545271,0 65.772636,105.90509 0 1 1 131.545271,0 z"
     transform="matrix(1.1304211,0,0,1.1253389,-3.6348057,-14.939863)" />
  <path
     sodipodi:type="arc"
     style="fill:none;stroke:#300000;stroke-opacity:1"
     id="path3772"
     sodipodi:cx="103.67551"
     sodipodi:cy="24.80406"
     sodipodi:rx="8.9183235"
     sodipodi:ry="8.0822306"
     d="m 112.59383,24.80406 a 8.9183235,8.0822306 0 1 1 -4.8e-4,-0.08409"
     sodipodi:start="0"
     sodipodi:end="6.2727806"
     sodipodi:open="true"
     transform="matrix(1.3452871,0,0,1.3238033,-39.237254,-5.244661)" />
</svg>
