<?xml version="1.0" encoding="UTF-8" standalone="no"?>
<!-- Created with Inkscape (http://www.inkscape.org/) -->

<svg
   xmlns:dc="http://purl.org/dc/elements/1.1/"
   xmlns:cc="http://creativecommons.org/ns#"
   xmlns:rdf="http://www.w3.org/1999/02/22-rdf-syntax-ns#"
   xmlns:svg="http://www.w3.org/2000/svg"
   xmlns="http://www.w3.org/2000/svg"
   xmlns:sodipodi="http://sodipodi.sourceforge.net/DTD/sodipodi-0.dtd"
   xmlns:inkscape="http://www.inkscape.org/namespaces/inkscape"
   width="744.09448819"
   height="1052.3622047"
   id="svg2"
   version="1.1"
   inkscape:version="0.91pre2 r13617"
   sodipodi:docname="battery-cover-paths.svg">
  <defs
     id="defs4">
    <inkscape:perspective
       sodipodi:type="inkscape:persp3d"
       inkscape:vp_x="0 : 526.18109 : 1"
       inkscape:vp_y="0 : 1000 : 0"
       inkscape:vp_z="744.09448 : 526.18109 : 1"
       inkscape:persp3d-origin="372.04724 : 350.78739 : 1"
       id="perspective10" />
  </defs>
  <sodipodi:namedview
     id="base"
     pagecolor="#ffffff"
     bordercolor="#666666"
     borderopacity="1.0"
     inkscape:pageopacity="0.0"
     inkscape:pageshadow="2"
     inkscape:zoom="2.8"
     inkscape:cx="81.950251"
     inkscape:cy="110.77959"
     inkscape:document-units="mm"
     inkscape:current-layer="layer1"
     showgrid="false"
     inkscape:window-width="1918"
     inkscape:window-height="1078"
     inkscape:window-x="0"
     inkscape:window-y="0"
     inkscape:window-maximized="0" />
  <metadata
     id="metadata7">
    <rdf:RDF>
      <cc:Work
         rdf:about="">
        <dc:format>image/svg+xml</dc:format>
        <dc:type
           rdf:resource="http://purl.org/dc/dcmitype/StillImage" />
        <dc:title></dc:title>
      </cc:Work>
    </rdf:RDF>
  </metadata>
  <g
     inkscape:label="Layer 1"
     inkscape:groupmode="layer"
     id="layer1">
    <path
       style="fill:#cccccc;stroke:#000000;stroke-width:0;stroke-miterlimit:4;stroke-dasharray:none;stroke-opacity:1"
       d="m 46.578986,832.85431 239.912884,0 c 25.70661,0 46.40182,20.69521 46.40182,46.40182 l 0,126.52707 c 0,25.7066 -20.69521,46.4018 -46.40182,46.4018 l -239.912884,0 c -25.706608,0 -46.40182064,-20.6952 -46.40182064,-46.4018 l 0,-126.52707 c 0,-25.70661 20.69521264,-46.40182 46.40182064,-46.40182 z"
       id="rect2820" />
    <path
       transform="matrix(0.81460157,0.58002093,-0.56656052,0.82402013,0,0)"
       style="opacity:0.37000002;fill:#2c05e7;fill-opacity:0.23529412;stroke:#922b1d;stroke-width:0;stroke-linecap:round;stroke-miterlimit:4;stroke-dasharray:none;stroke-dashoffset:0;stroke-opacity:1"
       d="m 546.81448,666.91077 20.71739,0 c 5.74676,0 10.37321,4.62644 10.37321,10.3732 0,5.74675 -4.62645,10.3732 -10.37321,10.3732 l -20.71739,0 c -5.74675,0 -10.3732,-4.62645 -10.3732,-10.3732 0,-5.74676 4.62645,-10.3732 10.3732,-10.3732 z"
       id="rect4156" />
  </g>
</svg>
