  0
SECTION
  2
HEADER
  9
$ACADVER
  1
AC1014
  9
$HANDSEED
  5
FFFF
  9
$MEASUREMENT
 70
     1
  0
ENDSEC
  0
SECTION
  2
TABLES
  0
TABLE
  2
VPORT
  5
8
330
0
100
AcDbSymbolTable
 70
     4
  0
VPORT
  5
2E
330
8
100
AcDbSymbolTableRecord
100
AcDbViewportTableRecord
  2
*ACTIVE
 70
     0
 10
0.0
 20
0.0
 11
1.0
 21
1.0
 12
210.0
 22
148.5
 13
0.0
 23
0.0
 14
10.0
 24
10.0
 15
10.0
 25
10.0
 16
0.0
 26
0.0
 36
1.0
 17
0.0
 27
0.0
 37
0.0
 40
341.0
 41
1.24
 42
50.0
 43
0.0
 44
0.0
 50
0.0
 51
0.0
 71
     0
 72
   100
 73
     1
 74
     3
 75
     0
 76
     0
 77
     0
 78
     0
  0
ENDTAB
  0
TABLE
  2
LTYPE
  5
5
330
0
100
AcDbSymbolTable
 70
     1
  0
LTYPE
  5
14
330
5
100
AcDbSymbolTableRecord
100
AcDbLinetypeTableRecord
  2
BYBLOCK
 70
     0
  3

 72
    65
 73
     0
 40
0.0
  0
LTYPE
  5
15
330
5
100
AcDbSymbolTableRecord
100
AcDbLinetypeTableRecord
  2
BYLAYER
 70
     0
  3

 72
    65
 73
     0
 40
0.0
  0
LTYPE
  5
16
330
5
100
AcDbSymbolTableRecord
100
AcDbLinetypeTableRecord
  2
CONTINUOUS
 70
     0
  3
Solid line
 72
    65
 73
     0
 40
0.0
  0
ENDTAB
  0
TABLE
  2
LAYER
  5
2
100
AcDbSymbolTable
 70
2
  0
LAYER
  5
50
100
AcDbSymbolTableRecord
100
AcDbLayerTableRecord
  2
0
 70
0
  6
CONTINUOUS
  0
LAYER
  5
51
100
AcDbSymbolTableRecord
100
AcDbLayerTableRecord
  2
Layer_1
 70
0
  6
CONTINUOUS
  0
ENDTAB
  0
TABLE
  2
STYLE
  5
3
330
0
100
AcDbSymbolTable
 70
     1
  0
STYLE
  5
11
330
3
100
AcDbSymbolTableRecord
100
AcDbTextStyleTableRecord
  2
STANDARD
 70
     0
 40
0.0
 41
1.0
 50
0.0
 71
     0
 42
2.5
  3
txt
  4

  0
ENDTAB
  0
TABLE
  2
VIEW
  5
6
330
0
100
AcDbSymbolTable
 70
     0
  0
ENDTAB
  0
TABLE
  2
UCS
  5
7
330
0
100
AcDbSymbolTable
 70
     0
  0
ENDTAB
  0
TABLE
  2
APPID
  5
9
330
0
100
AcDbSymbolTable
 70
     2
  0
APPID
  5
12
330
9
100
AcDbSymbolTableRecord
100
AcDbRegAppTableRecord
  2
ACAD
 70
     0
  0
ENDTAB
  0
TABLE
  2
DIMSTYLE
  5
A
330
0
100
AcDbSymbolTable
 70
     1
  0
DIMSTYLE
105
27
330
A
100
AcDbSymbolTableRecord
100
AcDbDimStyleTableRecord
  2
ISO-25
 70
     0
  3

  4

  5

  6

  7

 40
1.0
 41
2.5
 42
0.625
 43
3.75
 44
1.25
 45
0.0
 46
0.0
 47
0.0
 48
0.0
140
2.5
141
2.5
142
0.0
143
0.03937007874016
144
1.0
145
0.0
146
1.0
147
0.625
 71
     0
 72
     0
 73
     0
 74
     0
 75
     0
 76
     0
 77
     1
 78
     8
170
     0
171
     3
172
     1
173
     0
174
     0
175
     0
176
     0
177
     0
178
     0
270
     2
271
     2
272
     2
273
     2
274
     3
340
11
275
     0
280
     0
281
     0
282
     0
283
     0
284
     8
285
     0
286
     0
287
     3
288
     0
  0
ENDTAB
  0
TABLE
  2
BLOCK_RECORD
  5
1
330
0
100
AcDbSymbolTable
 70
     1
  0
BLOCK_RECORD
  5
1F
330
1
100
AcDbSymbolTableRecord
100
AcDbBlockTableRecord
  2
*MODEL_SPACE
  0
BLOCK_RECORD
  5
1B
330
1
100
AcDbSymbolTableRecord
100
AcDbBlockTableRecord
  2
*PAPER_SPACE
  0
ENDTAB
  0
ENDSEC
  0
SECTION
  2
BLOCKS
  0
BLOCK
  5
20
330
1F
100
AcDbEntity
  8
0
100
AcDbBlockBegin
  2
*MODEL_SPACE
 70
     0
 10
0.0
 20
0.0
 30
0.0
  3
*MODEL_SPACE
  1

  0
ENDBLK
  5
21
330
1F
100
AcDbEntity
  8
0
100
AcDbBlockEnd
  0
BLOCK
  5
1C
330
1B
100
AcDbEntity
 67
     1
  8
0
100
AcDbBlockBegin
  2
*PAPER_SPACE
  1

  0
ENDBLK
  5
1D
330
1B
100
AcDbEntity
 67
     1
  8
0
100
AcDbBlockEnd
  0
ENDSEC
  0
SECTION
  2
ENTITIES
  0
SPLINE
  5
100
100
AcDbEntity
  8
Layer_1
 62
1
100
AcDbSpline
 70
8
 71
3
 72
8
 73
4
 74
0
 40
0
 40
0
 40
0
 40
0
 40
1
 40
1
 40
1
 40
1
 10
75.635556
 20
45.155527
 30
0.0
 10
77.199067
 20
45.155527
 30
0.0
 10
78.457778
 20
43.896816
 30
0.0
 10
78.457778
 20
42.333305
 30
0.0
  0
LWPOLYLINE
  5
101
100
AcDbEntity
  8
Layer_1
 62
1
100
AcDbPolyline
 90
2
 70
1
 10
5.644446
 20
45.155527
 30
0.0
 10
75.635556
 20
45.155527
 30
0.0
  0
SPLINE
  5
102
100
AcDbEntity
  8
Layer_1
 62
1
100
AcDbSpline
 70
8
 71
3
 72
8
 73
4
 74
0
 40
0
 40
0
 40
0
 40
0
 40
1
 40
1
 40
1
 40
1
 10
78.457778
 20
5.644416
 30
0.0
 10
78.457778
 20
4.080905
 30
0.0
 10
77.199067
 20
2.822194
 30
0.0
 10
75.635556
 20
2.822194
 30
0.0
  0
LWPOLYLINE
  5
103
100
AcDbEntity
  8
Layer_1
 62
1
100
AcDbPolyline
 90
2
 70
1
 10
78.457778
 20
42.333305
 30
0.0
 10
78.457778
 20
5.644416
 30
0.0
  0
SPLINE
  5
104
100
AcDbEntity
  8
Layer_1
 62
1
100
AcDbSpline
 70
8
 71
3
 72
8
 73
4
 74
0
 40
0
 40
0
 40
0
 40
0
 40
1
 40
1
 40
1
 40
1
 10
5.644446
 20
2.822194
 30
0.0
 10
4.080935
 20
2.822194
 30
0.0
 10
2.822224
 20
4.080905
 30
0.0
 10
2.822224
 20
5.644416
 30
0.0
  0
LWPOLYLINE
  5
105
100
AcDbEntity
  8
Layer_1
 62
1
100
AcDbPolyline
 90
2
 70
1
 10
75.635556
 20
2.822194
 30
0.0
 10
5.644446
 20
2.822194
 30
0.0
  0
SPLINE
  5
106
100
AcDbEntity
  8
Layer_1
 62
1
100
AcDbSpline
 70
8
 71
3
 72
8
 73
4
 74
0
 40
0
 40
0
 40
0
 40
0
 40
1
 40
1
 40
1
 40
1
 10
2.822224
 20
42.333305
 30
0.0
 10
2.822224
 20
43.896816
 30
0.0
 10
4.080935
 20
45.155527
 30
0.0
 10
5.644446
 20
45.155527
 30
0.0
  0
LWPOLYLINE
  5
107
100
AcDbEntity
  8
Layer_1
 62
1
100
AcDbPolyline
 90
2
 70
1
 10
2.822224
 20
5.644416
 30
0.0
 10
2.822224
 20
42.333305
 30
0.0
  0
LWPOLYLINE
  5
108
100
AcDbEntity
  8
Layer_1
 62
1
100
AcDbPolyline
 90
2
 70
1
 10
5.644446
 20
45.155527
 30
0.0
 10
5.644446
 20
45.155527
 30
0.0
  0
SPLINE
  5
109
100
AcDbEntity
  8
Layer_1
 62
1
100
AcDbSpline
 70
8
 71
3
 72
8
 73
4
 74
0
 40
0
 40
0
 40
0
 40
0
 40
1
 40
1
 40
1
 40
1
 10
60.311487
 20
33.302194
 30
0.0
 10
61.608868
 20
33.302194
 30
0.0
 10
62.653331
 20
32.276570
 30
0.0
 10
62.653331
 20
31.002591
 30
0.0
  0
LWPOLYLINE
  5
10a
100
AcDbEntity
  8
Layer_1
 62
1
100
AcDbPolyline
 90
2
 70
1
 10
20.968513
 20
33.302194
 30
0.0
 10
60.311487
 20
33.302194
 30
0.0
  0
SPLINE
  5
10b
100
AcDbEntity
  8
Layer_1
 62
1
100
AcDbSpline
 70
8
 71
3
 72
8
 73
4
 74
0
 40
0
 40
0
 40
0
 40
0
 40
1
 40
1
 40
1
 40
1
 10
62.653331
 20
10.766213
 30
0.0
 10
62.653331
 20
9.492262
 30
0.0
 10
61.608868
 20
8.466638
 30
0.0
 10
60.311487
 20
8.466638
 30
0.0
  0
LWPOLYLINE
  5
10c
100
AcDbEntity
  8
Layer_1
 62
1
100
AcDbPolyline
 90
2
 70
1
 10
62.653331
 20
31.002591
 30
0.0
 10
62.653331
 20
10.766213
 30
0.0
  0
SPLINE
  5
10d
100
AcDbEntity
  8
Layer_1
 62
1
100
AcDbSpline
 70
8
 71
3
 72
8
 73
4
 74
0
 40
0
 40
0
 40
0
 40
0
 40
1
 40
1
 40
1
 40
1
 10
20.968513
 20
8.466638
 30
0.0
 10
19.671131
 20
8.466638
 30
0.0
 10
18.626669
 20
9.492262
 30
0.0
 10
18.626669
 20
10.766213
 30
0.0
  0
LWPOLYLINE
  5
10e
100
AcDbEntity
  8
Layer_1
 62
1
100
AcDbPolyline
 90
2
 70
1
 10
60.311487
 20
8.466638
 30
0.0
 10
20.968513
 20
8.466638
 30
0.0
  0
SPLINE
  5
10f
100
AcDbEntity
  8
Layer_1
 62
1
100
AcDbSpline
 70
8
 71
3
 72
8
 73
4
 74
0
 40
0
 40
0
 40
0
 40
0
 40
1
 40
1
 40
1
 40
1
 10
18.626669
 20
31.002591
 30
0.0
 10
18.626669
 20
32.276570
 30
0.0
 10
19.671131
 20
33.302194
 30
0.0
 10
20.968513
 20
33.302194
 30
0.0
  0
LWPOLYLINE
  5
110
100
AcDbEntity
  8
Layer_1
 62
1
100
AcDbPolyline
 90
2
 70
1
 10
18.626669
 20
10.766213
 30
0.0
 10
18.626669
 20
31.002591
 30
0.0
  0
SPLINE
  5
111
100
AcDbEntity
  8
Layer_1
 62
1
100
AcDbSpline
 70
8
 71
3
 72
8
 73
4
 74
0
 40
0
 40
0
 40
0
 40
0
 40
1
 40
1
 40
1
 40
1
 10
5.164142
 20
88.899906
 30
0.0
 10
3.866761
 20
88.899906
 30
0.0
 10
2.822264
 20
87.874324
 30
0.0
 10
2.822264
 20
86.600341
 30
0.0
  0
LWPOLYLINE
  5
112
100
AcDbEntity
  8
Layer_1
 62
1
100
AcDbPolyline
 90
2
 70
1
 10
20.968513
 20
33.302194
 30
0.0
 10
20.968513
 20
33.302194
 30
0.0
  0
SPLINE
  5
113
100
AcDbEntity
  8
Layer_1
 62
1
100
AcDbSpline
 70
8
 71
3
 72
8
 73
4
 74
0
 40
0
 40
0
 40
0
 40
0
 40
1
 40
1
 40
1
 40
1
 10
2.822264
 20
50.277267
 30
0.0
 10
2.822264
 20
49.003315
 30
0.0
 10
3.866761
 20
47.977702
 30
0.0
 10
5.164142
 20
47.977702
 30
0.0
  0
LWPOLYLINE
  5
114
100
AcDbEntity
  8
Layer_1
 62
1
100
AcDbPolyline
 90
2
 70
0
 10
2.822264
 20
86.600341
 30
0.0
 10
2.822264
 20
50.277267
 30
0.0
  0
SPLINE
  5
115
100
AcDbEntity
  8
Layer_1
 62
1
100
AcDbSpline
 70
8
 71
3
 72
8
 73
4
 74
0
 40
0
 40
0
 40
0
 40
0
 40
1
 40
1
 40
1
 40
1
 10
76.115874
 20
47.977702
 30
0.0
 10
77.413253
 20
47.977702
 30
0.0
 10
78.457752
 20
49.003315
 30
0.0
 10
78.457752
 20
50.277267
 30
0.0
  0
LWPOLYLINE
  5
116
100
AcDbEntity
  8
Layer_1
 62
1
100
AcDbPolyline
 90
2
 70
0
 10
5.164142
 20
47.977702
 30
0.0
 10
76.115874
 20
47.977702
 30
0.0
  0
SPLINE
  5
117
100
AcDbEntity
  8
Layer_1
 62
1
100
AcDbSpline
 70
8
 71
3
 72
8
 73
4
 74
0
 40
0
 40
0
 40
0
 40
0
 40
1
 40
1
 40
1
 40
1
 10
78.457752
 20
86.600341
 30
0.0
 10
78.457752
 20
87.874324
 30
0.0
 10
77.413253
 20
88.899906
 30
0.0
 10
76.115874
 20
88.899906
 30
0.0
  0
LWPOLYLINE
  5
118
100
AcDbEntity
  8
Layer_1
 62
1
100
AcDbPolyline
 90
2
 70
0
 10
78.457752
 20
50.277267
 30
0.0
 10
78.457752
 20
86.600341
 30
0.0
  0
LWPOLYLINE
  5
119
100
AcDbEntity
  8
Layer_1
 62
1
100
AcDbPolyline
 90
15
 70
0
 10
76.115874
 20
88.899906
 30
0.0
 10
62.088871
 20
88.899906
 30
0.0
 10
62.088871
 20
86.642188
 30
0.0
 10
59.266607
 20
86.642188
 30
0.0
 10
59.266607
 20
88.899906
 30
0.0
 10
40.357813
 20
88.899906
 30
0.0
 10
40.357813
 20
86.642188
 30
0.0
 10
37.535549
 20
86.642188
 30
0.0
 10
37.535549
 20
88.899906
 30
0.0
 10
19.191145
 20
88.899906
 30
0.0
 10
19.191145
 20
86.642188
 30
0.0
 10
16.368882
 20
86.642188
 30
0.0
 10
16.368882
 20
88.899906
 30
0.0
 10
5.164142
 20
88.899906
 30
0.0
 10
5.164142
 20
88.899906
 30
0.0
  0
SPLINE
  5
11a
100
AcDbEntity
  8
Layer_1
 62
1
100
AcDbSpline
 70
8
 71
3
 72
8
 73
4
 74
0
 40
0
 40
0
 40
0
 40
0
 40
1
 40
1
 40
1
 40
1
 10
16.933272
 20
81.280017
 30
0.0
 10
15.369761
 20
81.280017
 30
0.0
 10
14.111164
 20
80.021262
 30
0.0
 10
14.111164
 20
78.457752
 30
0.0
  0
LWPOLYLINE
  5
11b
100
AcDbEntity
  8
Layer_1
 62
1
100
AcDbPolyline
 90
3
 70
0
 10
18.908950
 20
84.948866
 30
0.0
 10
18.908950
 20
81.280017
 30
0.0
 10
16.933272
 20
81.280017
 30
0.0
  0
SPLINE
  5
11c
100
AcDbEntity
  8
Layer_1
 62
1
100
AcDbSpline
 70
8
 71
3
 72
8
 73
4
 74
0
 40
0
 40
0
 40
0
 40
0
 40
1
 40
1
 40
1
 40
1
 10
14.111164
 20
53.622231
 30
0.0
 10
14.111164
 20
52.058721
 30
0.0
 10
15.369761
 20
50.799966
 30
0.0
 10
16.933272
 20
50.799966
 30
0.0
  0
LWPOLYLINE
  5
11d
100
AcDbEntity
  8
Layer_1
 62
1
100
AcDbPolyline
 90
10
 70
0
 10
14.111164
 20
78.457752
 30
0.0
 10
14.111164
 20
71.120053
 30
0.0
 10
8.466636
 20
71.120053
 30
0.0
 10
8.466636
 20
68.297789
 30
0.0
 10
14.111164
 20
68.297789
 30
0.0
 10
14.111164
 20
62.088872
 30
0.0
 10
8.466636
 20
62.088872
 30
0.0
 10
8.466636
 20
57.573278
 30
0.0
 10
14.111164
 20
57.573278
 30
0.0
 10
14.111164
 20
53.622231
 30
0.0
  0
SPLINE
  5
11e
100
AcDbEntity
  8
Layer_1
 62
1
100
AcDbSpline
 70
8
 71
3
 72
8
 73
4
 74
0
 40
0
 40
0
 40
0
 40
0
 40
1
 40
1
 40
1
 40
1
 10
64.346589
 20
50.799966
 30
0.0
 10
65.910100
 20
50.799966
 30
0.0
 10
67.168853
 20
52.058721
 30
0.0
 10
67.168853
 20
53.622231
 30
0.0
  0
LWPOLYLINE
  5
11f
100
AcDbEntity
  8
Layer_1
 62
1
100
AcDbPolyline
 90
2
 70
0
 10
16.933272
 20
50.799966
 30
0.0
 10
64.346589
 20
50.799966
 30
0.0
  0
SPLINE
  5
120
100
AcDbEntity
  8
Layer_1
 62
1
100
AcDbSpline
 70
8
 71
3
 72
8
 73
4
 74
0
 40
0
 40
0
 40
0
 40
0
 40
1
 40
1
 40
1
 40
1
 10
67.168853
 20
78.457752
 30
0.0
 10
67.168853
 20
80.021262
 30
0.0
 10
65.910100
 20
81.280017
 30
0.0
 10
64.346589
 20
81.280017
 30
0.0
  0
LWPOLYLINE
  5
121
100
AcDbEntity
  8
Layer_1
 62
1
100
AcDbPolyline
 90
2
 70
0
 10
67.168853
 20
53.622231
 30
0.0
 10
67.168853
 20
78.457752
 30
0.0
  0
LWPOLYLINE
  5
122
100
AcDbEntity
  8
Layer_1
 62
1
100
AcDbPolyline
 90
13
 70
0
 10
64.346589
 20
81.280017
 30
0.0
 10
31.044435
 20
81.280017
 30
0.0
 10
31.044435
 20
84.948866
 30
0.0
 10
27.657781
 20
84.948866
 30
0.0
 10
27.657781
 20
81.280017
 30
0.0
 10
26.528844
 20
81.280017
 30
0.0
 10
26.528844
 20
84.948866
 30
0.0
 10
23.142190
 20
84.948866
 30
0.0
 10
23.142190
 20
81.280017
 30
0.0
 10
22.295605
 20
81.280017
 30
0.0
 10
22.295605
 20
84.948866
 30
0.0
 10
18.908950
 20
84.948866
 30
0.0
 10
18.908950
 20
84.948866
 30
0.0
  0
SPLINE
  5
123
100
AcDbEntity
  8
Layer_1
 62
1
100
AcDbSpline
 70
8
 71
3
 72
8
 73
4
 74
0
 40
0
 40
0
 40
0
 40
0
 40
1
 40
1
 40
1
 40
1
 10
8.466668
 20
19.473333
 30
0.0
 10
9.248424
 20
19.473333
 30
0.0
 10
9.877779
 20
18.843978
 30
0.0
 10
9.877779
 20
18.062222
 30
0.0
  0
LWPOLYLINE
  5
124
100
AcDbEntity
  8
Layer_1
 62
1
100
AcDbPolyline
 90
2
 70
1
 10
6.773335
 20
19.473333
 30
0.0
 10
8.466668
 20
19.473333
 30
0.0
  0
SPLINE
  5
125
100
AcDbEntity
  8
Layer_1
 62
1
100
AcDbSpline
 70
8
 71
3
 72
8
 73
4
 74
0
 40
0
 40
0
 40
0
 40
0
 40
1
 40
1
 40
1
 40
1
 10
9.877779
 20
16.368889
 30
0.0
 10
9.877779
 20
15.587133
 30
0.0
 10
9.248424
 20
14.957778
 30
0.0
 10
8.466668
 20
14.957778
 30
0.0
  0
LWPOLYLINE
  5
126
100
AcDbEntity
  8
Layer_1
 62
1
100
AcDbPolyline
 90
2
 70
1
 10
9.877779
 20
18.062222
 30
0.0
 10
9.877779
 20
16.368889
 30
0.0
  0
SPLINE
  5
127
100
AcDbEntity
  8
Layer_1
 62
1
100
AcDbSpline
 70
8
 71
3
 72
8
 73
4
 74
0
 40
0
 40
0
 40
0
 40
0
 40
1
 40
1
 40
1
 40
1
 10
6.773335
 20
14.957778
 30
0.0
 10
5.991579
 20
14.957778
 30
0.0
 10
5.362224
 20
15.587133
 30
0.0
 10
5.362224
 20
16.368889
 30
0.0
  0
LWPOLYLINE
  5
128
100
AcDbEntity
  8
Layer_1
 62
1
100
AcDbPolyline
 90
2
 70
1
 10
8.466668
 20
14.957778
 30
0.0
 10
6.773335
 20
14.957778
 30
0.0
  0
SPLINE
  5
129
100
AcDbEntity
  8
Layer_1
 62
1
100
AcDbSpline
 70
8
 71
3
 72
8
 73
4
 74
0
 40
0
 40
0
 40
0
 40
0
 40
1
 40
1
 40
1
 40
1
 10
5.362224
 20
18.062222
 30
0.0
 10
5.362224
 20
18.843978
 30
0.0
 10
5.991579
 20
19.473333
 30
0.0
 10
6.773335
 20
19.473333
 30
0.0
  0
LWPOLYLINE
  5
12a
100
AcDbEntity
  8
Layer_1
 62
1
100
AcDbPolyline
 90
2
 70
1
 10
5.362224
 20
16.368889
 30
0.0
 10
5.362224
 20
18.062222
 30
0.0
  0
LWPOLYLINE
  5
12b
100
AcDbEntity
  8
Layer_1
 62
1
100
AcDbPolyline
 90
2
 70
1
 10
6.773335
 20
19.473333
 30
0.0
 10
6.773335
 20
19.473333
 30
0.0
  0
SPLINE
  5
12c
100
AcDbEntity
  8
Layer_1
 62
1
100
AcDbSpline
 70
8
 71
3
 72
8
 73
4
 74
0
 40
0
 40
0
 40
0
 40
0
 40
1
 40
1
 40
1
 40
1
 10
8.466671
 20
25.399972
 30
0.0
 10
9.248425
 20
25.399972
 30
0.0
 10
9.877779
 20
24.770616
 30
0.0
 10
9.877779
 20
23.988861
 30
0.0
  0
LWPOLYLINE
  5
12d
100
AcDbEntity
  8
Layer_1
 62
1
100
AcDbPolyline
 90
2
 70
1
 10
6.773332
 20
25.399972
 30
0.0
 10
8.466671
 20
25.399972
 30
0.0
  0
SPLINE
  5
12e
100
AcDbEntity
  8
Layer_1
 62
1
100
AcDbSpline
 70
8
 71
3
 72
8
 73
4
 74
0
 40
0
 40
0
 40
0
 40
0
 40
1
 40
1
 40
1
 40
1
 10
9.877779
 20
22.295527
 30
0.0
 10
9.877779
 20
21.513772
 30
0.0
 10
9.248425
 20
20.884416
 30
0.0
 10
8.466671
 20
20.884416
 30
0.0
  0
LWPOLYLINE
  5
12f
100
AcDbEntity
  8
Layer_1
 62
1
100
AcDbPolyline
 90
2
 70
1
 10
9.877779
 20
23.988861
 30
0.0
 10
9.877779
 20
22.295527
 30
0.0
  0
SPLINE
  5
130
100
AcDbEntity
  8
Layer_1
 62
1
100
AcDbSpline
 70
8
 71
3
 72
8
 73
4
 74
0
 40
0
 40
0
 40
0
 40
0
 40
1
 40
1
 40
1
 40
1
 10
6.773332
 20
20.884416
 30
0.0
 10
5.991578
 20
20.884416
 30
0.0
 10
5.362224
 20
21.513772
 30
0.0
 10
5.362224
 20
22.295527
 30
0.0
  0
LWPOLYLINE
  5
131
100
AcDbEntity
  8
Layer_1
 62
1
100
AcDbPolyline
 90
2
 70
1
 10
8.466671
 20
20.884416
 30
0.0
 10
6.773332
 20
20.884416
 30
0.0
  0
SPLINE
  5
132
100
AcDbEntity
  8
Layer_1
 62
1
100
AcDbSpline
 70
8
 71
3
 72
8
 73
4
 74
0
 40
0
 40
0
 40
0
 40
0
 40
1
 40
1
 40
1
 40
1
 10
5.362224
 20
23.988861
 30
0.0
 10
5.362224
 20
24.770616
 30
0.0
 10
5.991578
 20
25.399972
 30
0.0
 10
6.773332
 20
25.399972
 30
0.0
  0
LWPOLYLINE
  5
133
100
AcDbEntity
  8
Layer_1
 62
1
100
AcDbPolyline
 90
2
 70
1
 10
5.362224
 20
22.295527
 30
0.0
 10
5.362224
 20
23.988861
 30
0.0
  0
LWPOLYLINE
  5
134
100
AcDbEntity
  8
Layer_1
 62
1
100
AcDbPolyline
 90
2
 70
1
 10
6.773332
 20
25.399972
 30
0.0
 10
6.773332
 20
25.399972
 30
0.0
  0
SPLINE
  5
135
100
AcDbEntity
  8
Layer_1
 62
1
100
AcDbSpline
 70
8
 71
3
 72
8
 73
4
 74
0
 40
0
 40
0
 40
0
 40
0
 40
1
 40
1
 40
1
 40
1
 10
8.466671
 20
30.479972
 30
0.0
 10
9.248425
 20
30.479972
 30
0.0
 10
9.877779
 20
29.850616
 30
0.0
 10
9.877779
 20
29.068861
 30
0.0
  0
LWPOLYLINE
  5
136
100
AcDbEntity
  8
Layer_1
 62
1
100
AcDbPolyline
 90
2
 70
1
 10
6.773332
 20
30.479972
 30
0.0
 10
8.466671
 20
30.479972
 30
0.0
  0
SPLINE
  5
137
100
AcDbEntity
  8
Layer_1
 62
1
100
AcDbSpline
 70
8
 71
3
 72
8
 73
4
 74
0
 40
0
 40
0
 40
0
 40
0
 40
1
 40
1
 40
1
 40
1
 10
9.877779
 20
27.375527
 30
0.0
 10
9.877779
 20
26.593772
 30
0.0
 10
9.248425
 20
25.964416
 30
0.0
 10
8.466671
 20
25.964416
 30
0.0
  0
LWPOLYLINE
  5
138
100
AcDbEntity
  8
Layer_1
 62
1
100
AcDbPolyline
 90
2
 70
1
 10
9.877779
 20
29.068861
 30
0.0
 10
9.877779
 20
27.375527
 30
0.0
  0
SPLINE
  5
139
100
AcDbEntity
  8
Layer_1
 62
1
100
AcDbSpline
 70
8
 71
3
 72
8
 73
4
 74
0
 40
0
 40
0
 40
0
 40
0
 40
1
 40
1
 40
1
 40
1
 10
6.773332
 20
25.964416
 30
0.0
 10
5.991578
 20
25.964416
 30
0.0
 10
5.362224
 20
26.593772
 30
0.0
 10
5.362224
 20
27.375527
 30
0.0
  0
LWPOLYLINE
  5
13a
100
AcDbEntity
  8
Layer_1
 62
1
100
AcDbPolyline
 90
2
 70
1
 10
8.466671
 20
25.964416
 30
0.0
 10
6.773332
 20
25.964416
 30
0.0
  0
SPLINE
  5
13b
100
AcDbEntity
  8
Layer_1
 62
1
100
AcDbSpline
 70
8
 71
3
 72
8
 73
4
 74
0
 40
0
 40
0
 40
0
 40
0
 40
1
 40
1
 40
1
 40
1
 10
5.362224
 20
29.068861
 30
0.0
 10
5.362224
 20
29.850616
 30
0.0
 10
5.991578
 20
30.479972
 30
0.0
 10
6.773332
 20
30.479972
 30
0.0
  0
LWPOLYLINE
  5
13c
100
AcDbEntity
  8
Layer_1
 62
1
100
AcDbPolyline
 90
2
 70
1
 10
5.362224
 20
27.375527
 30
0.0
 10
5.362224
 20
29.068861
 30
0.0
  0
LWPOLYLINE
  5
13d
100
AcDbEntity
  8
Layer_1
 62
1
100
AcDbPolyline
 90
2
 70
1
 10
6.773332
 20
30.479972
 30
0.0
 10
6.773332
 20
30.479972
 30
0.0
  0
SPLINE
  5
13e
100
AcDbEntity
  8
Layer_1
 62
1
100
AcDbSpline
 70
8
 71
3
 72
8
 73
4
 74
0
 40
0
 40
0
 40
0
 40
0
 40
1
 40
1
 40
1
 40
1
 10
71.120003
 20
19.473333
 30
0.0
 10
71.901756
 20
19.473333
 30
0.0
 10
72.531111
 20
18.843978
 30
0.0
 10
72.531111
 20
18.062222
 30
0.0
  0
LWPOLYLINE
  5
13f
100
AcDbEntity
  8
Layer_1
 62
1
100
AcDbPolyline
 90
2
 70
1
 10
69.426664
 20
19.473333
 30
0.0
 10
71.120003
 20
19.473333
 30
0.0
  0
SPLINE
  5
140
100
AcDbEntity
  8
Layer_1
 62
1
100
AcDbSpline
 70
8
 71
3
 72
8
 73
4
 74
0
 40
0
 40
0
 40
0
 40
0
 40
1
 40
1
 40
1
 40
1
 10
72.531111
 20
16.368889
 30
0.0
 10
72.531111
 20
15.587133
 30
0.0
 10
71.901756
 20
14.957778
 30
0.0
 10
71.120003
 20
14.957778
 30
0.0
  0
LWPOLYLINE
  5
141
100
AcDbEntity
  8
Layer_1
 62
1
100
AcDbPolyline
 90
2
 70
1
 10
72.531111
 20
18.062222
 30
0.0
 10
72.531111
 20
16.368889
 30
0.0
  0
SPLINE
  5
142
100
AcDbEntity
  8
Layer_1
 62
1
100
AcDbSpline
 70
8
 71
3
 72
8
 73
4
 74
0
 40
0
 40
0
 40
0
 40
0
 40
1
 40
1
 40
1
 40
1
 10
69.426664
 20
14.957778
 30
0.0
 10
68.644911
 20
14.957778
 30
0.0
 10
68.015556
 20
15.587133
 30
0.0
 10
68.015556
 20
16.368889
 30
0.0
  0
LWPOLYLINE
  5
143
100
AcDbEntity
  8
Layer_1
 62
1
100
AcDbPolyline
 90
2
 70
1
 10
71.120003
 20
14.957778
 30
0.0
 10
69.426664
 20
14.957778
 30
0.0
  0
SPLINE
  5
144
100
AcDbEntity
  8
Layer_1
 62
1
100
AcDbSpline
 70
8
 71
3
 72
8
 73
4
 74
0
 40
0
 40
0
 40
0
 40
0
 40
1
 40
1
 40
1
 40
1
 10
68.015556
 20
18.062222
 30
0.0
 10
68.015556
 20
18.843978
 30
0.0
 10
68.644911
 20
19.473333
 30
0.0
 10
69.426664
 20
19.473333
 30
0.0
  0
LWPOLYLINE
  5
145
100
AcDbEntity
  8
Layer_1
 62
1
100
AcDbPolyline
 90
2
 70
1
 10
68.015556
 20
16.368889
 30
0.0
 10
68.015556
 20
18.062222
 30
0.0
  0
LWPOLYLINE
  5
146
100
AcDbEntity
  8
Layer_1
 62
1
100
AcDbPolyline
 90
2
 70
1
 10
69.426664
 20
19.473333
 30
0.0
 10
69.426664
 20
19.473333
 30
0.0
  0
SPLINE
  5
147
100
AcDbEntity
  8
Layer_1
 62
1
100
AcDbSpline
 70
8
 71
3
 72
8
 73
4
 74
0
 40
0
 40
0
 40
0
 40
0
 40
1
 40
1
 40
1
 40
1
 10
71.120003
 20
25.399972
 30
0.0
 10
71.901756
 20
25.399972
 30
0.0
 10
72.531111
 20
24.770616
 30
0.0
 10
72.531111
 20
23.988861
 30
0.0
  0
LWPOLYLINE
  5
148
100
AcDbEntity
  8
Layer_1
 62
1
100
AcDbPolyline
 90
2
 70
1
 10
69.426664
 20
25.399972
 30
0.0
 10
71.120003
 20
25.399972
 30
0.0
  0
SPLINE
  5
149
100
AcDbEntity
  8
Layer_1
 62
1
100
AcDbSpline
 70
8
 71
3
 72
8
 73
4
 74
0
 40
0
 40
0
 40
0
 40
0
 40
1
 40
1
 40
1
 40
1
 10
72.531111
 20
22.295527
 30
0.0
 10
72.531111
 20
21.513772
 30
0.0
 10
71.901756
 20
20.884416
 30
0.0
 10
71.120003
 20
20.884416
 30
0.0
  0
LWPOLYLINE
  5
14a
100
AcDbEntity
  8
Layer_1
 62
1
100
AcDbPolyline
 90
2
 70
1
 10
72.531111
 20
23.988861
 30
0.0
 10
72.531111
 20
22.295527
 30
0.0
  0
SPLINE
  5
14b
100
AcDbEntity
  8
Layer_1
 62
1
100
AcDbSpline
 70
8
 71
3
 72
8
 73
4
 74
0
 40
0
 40
0
 40
0
 40
0
 40
1
 40
1
 40
1
 40
1
 10
69.426664
 20
20.884416
 30
0.0
 10
68.644911
 20
20.884416
 30
0.0
 10
68.015556
 20
21.513772
 30
0.0
 10
68.015556
 20
22.295527
 30
0.0
  0
LWPOLYLINE
  5
14c
100
AcDbEntity
  8
Layer_1
 62
1
100
AcDbPolyline
 90
2
 70
1
 10
71.120003
 20
20.884416
 30
0.0
 10
69.426664
 20
20.884416
 30
0.0
  0
SPLINE
  5
14d
100
AcDbEntity
  8
Layer_1
 62
1
100
AcDbSpline
 70
8
 71
3
 72
8
 73
4
 74
0
 40
0
 40
0
 40
0
 40
0
 40
1
 40
1
 40
1
 40
1
 10
68.015556
 20
23.988861
 30
0.0
 10
68.015556
 20
24.770616
 30
0.0
 10
68.644911
 20
25.399972
 30
0.0
 10
69.426664
 20
25.399972
 30
0.0
  0
LWPOLYLINE
  5
14e
100
AcDbEntity
  8
Layer_1
 62
1
100
AcDbPolyline
 90
2
 70
1
 10
68.015556
 20
22.295527
 30
0.0
 10
68.015556
 20
23.988861
 30
0.0
  0
LWPOLYLINE
  5
14f
100
AcDbEntity
  8
Layer_1
 62
1
100
AcDbPolyline
 90
2
 70
1
 10
69.426664
 20
25.399972
 30
0.0
 10
69.426664
 20
25.399972
 30
0.0
  0
SPLINE
  5
150
100
AcDbEntity
  8
Layer_1
 62
1
100
AcDbSpline
 70
8
 71
3
 72
8
 73
4
 74
0
 40
0
 40
0
 40
0
 40
0
 40
1
 40
1
 40
1
 40
1
 10
71.120003
 20
30.479972
 30
0.0
 10
71.901756
 20
30.479972
 30
0.0
 10
72.531111
 20
29.850616
 30
0.0
 10
72.531111
 20
29.068861
 30
0.0
  0
LWPOLYLINE
  5
151
100
AcDbEntity
  8
Layer_1
 62
1
100
AcDbPolyline
 90
2
 70
1
 10
69.426664
 20
30.479972
 30
0.0
 10
71.120003
 20
30.479972
 30
0.0
  0
SPLINE
  5
152
100
AcDbEntity
  8
Layer_1
 62
1
100
AcDbSpline
 70
8
 71
3
 72
8
 73
4
 74
0
 40
0
 40
0
 40
0
 40
0
 40
1
 40
1
 40
1
 40
1
 10
72.531111
 20
27.375527
 30
0.0
 10
72.531111
 20
26.593772
 30
0.0
 10
71.901756
 20
25.964416
 30
0.0
 10
71.120003
 20
25.964416
 30
0.0
  0
LWPOLYLINE
  5
153
100
AcDbEntity
  8
Layer_1
 62
1
100
AcDbPolyline
 90
2
 70
1
 10
72.531111
 20
29.068861
 30
0.0
 10
72.531111
 20
27.375527
 30
0.0
  0
SPLINE
  5
154
100
AcDbEntity
  8
Layer_1
 62
1
100
AcDbSpline
 70
8
 71
3
 72
8
 73
4
 74
0
 40
0
 40
0
 40
0
 40
0
 40
1
 40
1
 40
1
 40
1
 10
69.426664
 20
25.964416
 30
0.0
 10
68.644911
 20
25.964416
 30
0.0
 10
68.015556
 20
26.593772
 30
0.0
 10
68.015556
 20
27.375527
 30
0.0
  0
LWPOLYLINE
  5
155
100
AcDbEntity
  8
Layer_1
 62
1
100
AcDbPolyline
 90
2
 70
1
 10
71.120003
 20
25.964416
 30
0.0
 10
69.426664
 20
25.964416
 30
0.0
  0
SPLINE
  5
156
100
AcDbEntity
  8
Layer_1
 62
1
100
AcDbSpline
 70
8
 71
3
 72
8
 73
4
 74
0
 40
0
 40
0
 40
0
 40
0
 40
1
 40
1
 40
1
 40
1
 10
68.015556
 20
29.068861
 30
0.0
 10
68.015556
 20
29.850616
 30
0.0
 10
68.644911
 20
30.479972
 30
0.0
 10
69.426664
 20
30.479972
 30
0.0
  0
LWPOLYLINE
  5
157
100
AcDbEntity
  8
Layer_1
 62
1
100
AcDbPolyline
 90
2
 70
1
 10
68.015556
 20
27.375527
 30
0.0
 10
68.015556
 20
29.068861
 30
0.0
  0
LWPOLYLINE
  5
158
100
AcDbEntity
  8
Layer_1
 62
1
100
AcDbPolyline
 90
2
 70
1
 10
69.426664
 20
30.479972
 30
0.0
 10
69.426664
 20
30.479972
 30
0.0
  0
SPLINE
  5
159
100
AcDbEntity
  8
Layer_1
 62
1
100
AcDbSpline
 70
8
 71
3
 72
8
 73
4
 74
0
 40
0
 40
0
 40
0
 40
0
 40
1
 40
1
 40
1
 40
1
 10
8.466668
 20
67.451108
 30
0.0
 10
9.248424
 20
67.451108
 30
0.0
 10
9.877779
 20
66.821753
 30
0.0
 10
9.877779
 20
66.039997
 30
0.0
  0
LWPOLYLINE
  5
15a
100
AcDbEntity
  8
Layer_1
 62
1
100
AcDbPolyline
 90
2
 70
1
 10
6.773335
 20
67.451108
 30
0.0
 10
8.466668
 20
67.451108
 30
0.0
  0
SPLINE
  5
15b
100
AcDbEntity
  8
Layer_1
 62
1
100
AcDbSpline
 70
8
 71
3
 72
8
 73
4
 74
0
 40
0
 40
0
 40
0
 40
0
 40
1
 40
1
 40
1
 40
1
 10
9.877779
 20
64.346664
 30
0.0
 10
9.877779
 20
63.564908
 30
0.0
 10
9.248424
 20
62.935553
 30
0.0
 10
8.466668
 20
62.935553
 30
0.0
  0
LWPOLYLINE
  5
15c
100
AcDbEntity
  8
Layer_1
 62
1
100
AcDbPolyline
 90
2
 70
1
 10
9.877779
 20
66.039997
 30
0.0
 10
9.877779
 20
64.346664
 30
0.0
  0
SPLINE
  5
15d
100
AcDbEntity
  8
Layer_1
 62
1
100
AcDbSpline
 70
8
 71
3
 72
8
 73
4
 74
0
 40
0
 40
0
 40
0
 40
0
 40
1
 40
1
 40
1
 40
1
 10
6.773335
 20
62.935553
 30
0.0
 10
5.991579
 20
62.935553
 30
0.0
 10
5.362224
 20
63.564908
 30
0.0
 10
5.362224
 20
64.346664
 30
0.0
  0
LWPOLYLINE
  5
15e
100
AcDbEntity
  8
Layer_1
 62
1
100
AcDbPolyline
 90
2
 70
1
 10
8.466668
 20
62.935553
 30
0.0
 10
6.773335
 20
62.935553
 30
0.0
  0
SPLINE
  5
15f
100
AcDbEntity
  8
Layer_1
 62
1
100
AcDbSpline
 70
8
 71
3
 72
8
 73
4
 74
0
 40
0
 40
0
 40
0
 40
0
 40
1
 40
1
 40
1
 40
1
 10
5.362224
 20
66.039997
 30
0.0
 10
5.362224
 20
66.821753
 30
0.0
 10
5.991579
 20
67.451108
 30
0.0
 10
6.773335
 20
67.451108
 30
0.0
  0
LWPOLYLINE
  5
160
100
AcDbEntity
  8
Layer_1
 62
1
100
AcDbPolyline
 90
2
 70
1
 10
5.362224
 20
64.346664
 30
0.0
 10
5.362224
 20
66.039997
 30
0.0
  0
LWPOLYLINE
  5
161
100
AcDbEntity
  8
Layer_1
 62
1
100
AcDbPolyline
 90
2
 70
1
 10
6.773335
 20
67.451108
 30
0.0
 10
6.773335
 20
67.451108
 30
0.0
  0
SPLINE
  5
162
100
AcDbEntity
  8
Layer_1
 62
1
100
AcDbSpline
 70
8
 71
3
 72
8
 73
4
 74
0
 40
0
 40
0
 40
0
 40
0
 40
1
 40
1
 40
1
 40
1
 10
8.466671
 20
73.377747
 30
0.0
 10
9.248425
 20
73.377747
 30
0.0
 10
9.877779
 20
72.748391
 30
0.0
 10
9.877779
 20
71.966636
 30
0.0
  0
LWPOLYLINE
  5
163
100
AcDbEntity
  8
Layer_1
 62
1
100
AcDbPolyline
 90
2
 70
1
 10
6.773332
 20
73.377747
 30
0.0
 10
8.466671
 20
73.377747
 30
0.0
  0
SPLINE
  5
164
100
AcDbEntity
  8
Layer_1
 62
1
100
AcDbSpline
 70
8
 71
3
 72
8
 73
4
 74
0
 40
0
 40
0
 40
0
 40
0
 40
1
 40
1
 40
1
 40
1
 10
9.877779
 20
70.273302
 30
0.0
 10
9.877779
 20
69.491547
 30
0.0
 10
9.248425
 20
68.862191
 30
0.0
 10
8.466671
 20
68.862191
 30
0.0
  0
LWPOLYLINE
  5
165
100
AcDbEntity
  8
Layer_1
 62
1
100
AcDbPolyline
 90
2
 70
1
 10
9.877779
 20
71.966636
 30
0.0
 10
9.877779
 20
70.273302
 30
0.0
  0
SPLINE
  5
166
100
AcDbEntity
  8
Layer_1
 62
1
100
AcDbSpline
 70
8
 71
3
 72
8
 73
4
 74
0
 40
0
 40
0
 40
0
 40
0
 40
1
 40
1
 40
1
 40
1
 10
6.773332
 20
68.862191
 30
0.0
 10
5.991578
 20
68.862191
 30
0.0
 10
5.362224
 20
69.491547
 30
0.0
 10
5.362224
 20
70.273302
 30
0.0
  0
LWPOLYLINE
  5
167
100
AcDbEntity
  8
Layer_1
 62
1
100
AcDbPolyline
 90
2
 70
1
 10
8.466671
 20
68.862191
 30
0.0
 10
6.773332
 20
68.862191
 30
0.0
  0
SPLINE
  5
168
100
AcDbEntity
  8
Layer_1
 62
1
100
AcDbSpline
 70
8
 71
3
 72
8
 73
4
 74
0
 40
0
 40
0
 40
0
 40
0
 40
1
 40
1
 40
1
 40
1
 10
5.362224
 20
71.966636
 30
0.0
 10
5.362224
 20
72.748391
 30
0.0
 10
5.991578
 20
73.377747
 30
0.0
 10
6.773332
 20
73.377747
 30
0.0
  0
LWPOLYLINE
  5
169
100
AcDbEntity
  8
Layer_1
 62
1
100
AcDbPolyline
 90
2
 70
1
 10
5.362224
 20
70.273302
 30
0.0
 10
5.362224
 20
71.966636
 30
0.0
  0
LWPOLYLINE
  5
16a
100
AcDbEntity
  8
Layer_1
 62
1
100
AcDbPolyline
 90
2
 70
1
 10
6.773332
 20
73.377747
 30
0.0
 10
6.773332
 20
73.377747
 30
0.0
  0
SPLINE
  5
16b
100
AcDbEntity
  8
Layer_1
 62
1
100
AcDbSpline
 70
8
 71
3
 72
8
 73
4
 74
0
 40
0
 40
0
 40
0
 40
0
 40
1
 40
1
 40
1
 40
1
 10
8.466671
 20
78.457747
 30
0.0
 10
9.248425
 20
78.457747
 30
0.0
 10
9.877779
 20
77.828391
 30
0.0
 10
9.877779
 20
77.046636
 30
0.0
  0
LWPOLYLINE
  5
16c
100
AcDbEntity
  8
Layer_1
 62
1
100
AcDbPolyline
 90
2
 70
1
 10
6.773332
 20
78.457747
 30
0.0
 10
8.466671
 20
78.457747
 30
0.0
  0
SPLINE
  5
16d
100
AcDbEntity
  8
Layer_1
 62
1
100
AcDbSpline
 70
8
 71
3
 72
8
 73
4
 74
0
 40
0
 40
0
 40
0
 40
0
 40
1
 40
1
 40
1
 40
1
 10
9.877779
 20
75.353302
 30
0.0
 10
9.877779
 20
74.571547
 30
0.0
 10
9.248425
 20
73.942191
 30
0.0
 10
8.466671
 20
73.942191
 30
0.0
  0
LWPOLYLINE
  5
16e
100
AcDbEntity
  8
Layer_1
 62
1
100
AcDbPolyline
 90
2
 70
1
 10
9.877779
 20
77.046636
 30
0.0
 10
9.877779
 20
75.353302
 30
0.0
  0
SPLINE
  5
16f
100
AcDbEntity
  8
Layer_1
 62
1
100
AcDbSpline
 70
8
 71
3
 72
8
 73
4
 74
0
 40
0
 40
0
 40
0
 40
0
 40
1
 40
1
 40
1
 40
1
 10
6.773332
 20
73.942191
 30
0.0
 10
5.991578
 20
73.942191
 30
0.0
 10
5.362224
 20
74.571547
 30
0.0
 10
5.362224
 20
75.353302
 30
0.0
  0
LWPOLYLINE
  5
170
100
AcDbEntity
  8
Layer_1
 62
1
100
AcDbPolyline
 90
2
 70
1
 10
8.466671
 20
73.942191
 30
0.0
 10
6.773332
 20
73.942191
 30
0.0
  0
SPLINE
  5
171
100
AcDbEntity
  8
Layer_1
 62
1
100
AcDbSpline
 70
8
 71
3
 72
8
 73
4
 74
0
 40
0
 40
0
 40
0
 40
0
 40
1
 40
1
 40
1
 40
1
 10
5.362224
 20
77.046636
 30
0.0
 10
5.362224
 20
77.828391
 30
0.0
 10
5.991578
 20
78.457747
 30
0.0
 10
6.773332
 20
78.457747
 30
0.0
  0
LWPOLYLINE
  5
172
100
AcDbEntity
  8
Layer_1
 62
1
100
AcDbPolyline
 90
2
 70
1
 10
5.362224
 20
75.353302
 30
0.0
 10
5.362224
 20
77.046636
 30
0.0
  0
LWPOLYLINE
  5
173
100
AcDbEntity
  8
Layer_1
 62
1
100
AcDbPolyline
 90
2
 70
1
 10
6.773332
 20
78.457747
 30
0.0
 10
6.773332
 20
78.457747
 30
0.0
  0
SPLINE
  5
174
100
AcDbEntity
  8
Layer_1
 62
1
100
AcDbSpline
 70
8
 71
3
 72
8
 73
4
 74
0
 40
0
 40
0
 40
0
 40
0
 40
1
 40
1
 40
1
 40
1
 10
71.120003
 20
67.451108
 30
0.0
 10
71.901755
 20
67.451108
 30
0.0
 10
72.531111
 20
66.821753
 30
0.0
 10
72.531111
 20
66.039997
 30
0.0
  0
LWPOLYLINE
  5
175
100
AcDbEntity
  8
Layer_1
 62
1
100
AcDbPolyline
 90
2
 70
1
 10
69.426664
 20
67.451108
 30
0.0
 10
71.120003
 20
67.451108
 30
0.0
  0
SPLINE
  5
176
100
AcDbEntity
  8
Layer_1
 62
1
100
AcDbSpline
 70
8
 71
3
 72
8
 73
4
 74
0
 40
0
 40
0
 40
0
 40
0
 40
1
 40
1
 40
1
 40
1
 10
72.531111
 20
64.346664
 30
0.0
 10
72.531111
 20
63.564908
 30
0.0
 10
71.901755
 20
62.935553
 30
0.0
 10
71.120003
 20
62.935553
 30
0.0
  0
LWPOLYLINE
  5
177
100
AcDbEntity
  8
Layer_1
 62
1
100
AcDbPolyline
 90
2
 70
1
 10
72.531111
 20
66.039997
 30
0.0
 10
72.531111
 20
64.346664
 30
0.0
  0
SPLINE
  5
178
100
AcDbEntity
  8
Layer_1
 62
1
100
AcDbSpline
 70
8
 71
3
 72
8
 73
4
 74
0
 40
0
 40
0
 40
0
 40
0
 40
1
 40
1
 40
1
 40
1
 10
69.426664
 20
62.935553
 30
0.0
 10
68.644911
 20
62.935553
 30
0.0
 10
68.015555
 20
63.564908
 30
0.0
 10
68.015555
 20
64.346664
 30
0.0
  0
LWPOLYLINE
  5
179
100
AcDbEntity
  8
Layer_1
 62
1
100
AcDbPolyline
 90
2
 70
1
 10
71.120003
 20
62.935553
 30
0.0
 10
69.426664
 20
62.935553
 30
0.0
  0
SPLINE
  5
17a
100
AcDbEntity
  8
Layer_1
 62
1
100
AcDbSpline
 70
8
 71
3
 72
8
 73
4
 74
0
 40
0
 40
0
 40
0
 40
0
 40
1
 40
1
 40
1
 40
1
 10
68.015555
 20
66.039997
 30
0.0
 10
68.015555
 20
66.821753
 30
0.0
 10
68.644911
 20
67.451108
 30
0.0
 10
69.426664
 20
67.451108
 30
0.0
  0
LWPOLYLINE
  5
17b
100
AcDbEntity
  8
Layer_1
 62
1
100
AcDbPolyline
 90
2
 70
1
 10
68.015555
 20
64.346664
 30
0.0
 10
68.015555
 20
66.039997
 30
0.0
  0
LWPOLYLINE
  5
17c
100
AcDbEntity
  8
Layer_1
 62
1
100
AcDbPolyline
 90
2
 70
1
 10
69.426664
 20
67.451108
 30
0.0
 10
69.426664
 20
67.451108
 30
0.0
  0
SPLINE
  5
17d
100
AcDbEntity
  8
Layer_1
 62
1
100
AcDbSpline
 70
8
 71
3
 72
8
 73
4
 74
0
 40
0
 40
0
 40
0
 40
0
 40
1
 40
1
 40
1
 40
1
 10
71.120003
 20
73.377747
 30
0.0
 10
71.901755
 20
73.377747
 30
0.0
 10
72.531111
 20
72.748391
 30
0.0
 10
72.531111
 20
71.966636
 30
0.0
  0
LWPOLYLINE
  5
17e
100
AcDbEntity
  8
Layer_1
 62
1
100
AcDbPolyline
 90
2
 70
1
 10
69.426664
 20
73.377747
 30
0.0
 10
71.120003
 20
73.377747
 30
0.0
  0
SPLINE
  5
17f
100
AcDbEntity
  8
Layer_1
 62
1
100
AcDbSpline
 70
8
 71
3
 72
8
 73
4
 74
0
 40
0
 40
0
 40
0
 40
0
 40
1
 40
1
 40
1
 40
1
 10
72.531111
 20
70.273302
 30
0.0
 10
72.531111
 20
69.491547
 30
0.0
 10
71.901755
 20
68.862191
 30
0.0
 10
71.120003
 20
68.862191
 30
0.0
  0
LWPOLYLINE
  5
180
100
AcDbEntity
  8
Layer_1
 62
1
100
AcDbPolyline
 90
2
 70
1
 10
72.531111
 20
71.966636
 30
0.0
 10
72.531111
 20
70.273302
 30
0.0
  0
SPLINE
  5
181
100
AcDbEntity
  8
Layer_1
 62
1
100
AcDbSpline
 70
8
 71
3
 72
8
 73
4
 74
0
 40
0
 40
0
 40
0
 40
0
 40
1
 40
1
 40
1
 40
1
 10
69.426664
 20
68.862191
 30
0.0
 10
68.644911
 20
68.862191
 30
0.0
 10
68.015555
 20
69.491547
 30
0.0
 10
68.015555
 20
70.273302
 30
0.0
  0
LWPOLYLINE
  5
182
100
AcDbEntity
  8
Layer_1
 62
1
100
AcDbPolyline
 90
2
 70
1
 10
71.120003
 20
68.862191
 30
0.0
 10
69.426664
 20
68.862191
 30
0.0
  0
SPLINE
  5
183
100
AcDbEntity
  8
Layer_1
 62
1
100
AcDbSpline
 70
8
 71
3
 72
8
 73
4
 74
0
 40
0
 40
0
 40
0
 40
0
 40
1
 40
1
 40
1
 40
1
 10
68.015555
 20
71.966636
 30
0.0
 10
68.015555
 20
72.748391
 30
0.0
 10
68.644911
 20
73.377747
 30
0.0
 10
69.426664
 20
73.377747
 30
0.0
  0
LWPOLYLINE
  5
184
100
AcDbEntity
  8
Layer_1
 62
1
100
AcDbPolyline
 90
2
 70
1
 10
68.015555
 20
70.273302
 30
0.0
 10
68.015555
 20
71.966636
 30
0.0
  0
LWPOLYLINE
  5
185
100
AcDbEntity
  8
Layer_1
 62
1
100
AcDbPolyline
 90
2
 70
1
 10
69.426664
 20
73.377747
 30
0.0
 10
69.426664
 20
73.377747
 30
0.0
  0
SPLINE
  5
186
100
AcDbEntity
  8
Layer_1
 62
1
100
AcDbSpline
 70
8
 71
3
 72
8
 73
4
 74
0
 40
0
 40
0
 40
0
 40
0
 40
1
 40
1
 40
1
 40
1
 10
71.120003
 20
78.457747
 30
0.0
 10
71.901755
 20
78.457747
 30
0.0
 10
72.531111
 20
77.828391
 30
0.0
 10
72.531111
 20
77.046636
 30
0.0
  0
LWPOLYLINE
  5
187
100
AcDbEntity
  8
Layer_1
 62
1
100
AcDbPolyline
 90
2
 70
1
 10
69.426664
 20
78.457747
 30
0.0
 10
71.120003
 20
78.457747
 30
0.0
  0
SPLINE
  5
188
100
AcDbEntity
  8
Layer_1
 62
1
100
AcDbSpline
 70
8
 71
3
 72
8
 73
4
 74
0
 40
0
 40
0
 40
0
 40
0
 40
1
 40
1
 40
1
 40
1
 10
72.531111
 20
75.353302
 30
0.0
 10
72.531111
 20
74.571547
 30
0.0
 10
71.901755
 20
73.942191
 30
0.0
 10
71.120003
 20
73.942191
 30
0.0
  0
LWPOLYLINE
  5
189
100
AcDbEntity
  8
Layer_1
 62
1
100
AcDbPolyline
 90
2
 70
1
 10
72.531111
 20
77.046636
 30
0.0
 10
72.531111
 20
75.353302
 30
0.0
  0
SPLINE
  5
18a
100
AcDbEntity
  8
Layer_1
 62
1
100
AcDbSpline
 70
8
 71
3
 72
8
 73
4
 74
0
 40
0
 40
0
 40
0
 40
0
 40
1
 40
1
 40
1
 40
1
 10
69.426664
 20
73.942191
 30
0.0
 10
68.644911
 20
73.942191
 30
0.0
 10
68.015555
 20
74.571547
 30
0.0
 10
68.015555
 20
75.353302
 30
0.0
  0
LWPOLYLINE
  5
18b
100
AcDbEntity
  8
Layer_1
 62
1
100
AcDbPolyline
 90
2
 70
1
 10
71.120003
 20
73.942191
 30
0.0
 10
69.426664
 20
73.942191
 30
0.0
  0
SPLINE
  5
18c
100
AcDbEntity
  8
Layer_1
 62
1
100
AcDbSpline
 70
8
 71
3
 72
8
 73
4
 74
0
 40
0
 40
0
 40
0
 40
0
 40
1
 40
1
 40
1
 40
1
 10
68.015555
 20
77.046636
 30
0.0
 10
68.015555
 20
77.828391
 30
0.0
 10
68.644911
 20
78.457747
 30
0.0
 10
69.426664
 20
78.457747
 30
0.0
  0
LWPOLYLINE
  5
18d
100
AcDbEntity
  8
Layer_1
 62
1
100
AcDbPolyline
 90
2
 70
1
 10
68.015555
 20
75.353302
 30
0.0
 10
68.015555
 20
77.046636
 30
0.0
  0
LWPOLYLINE
  5
18e
100
AcDbEntity
  8
Layer_1
 62
1
100
AcDbPolyline
 90
2
 70
1
 10
69.426664
 20
78.457747
 30
0.0
 10
69.426664
 20
78.457747
 30
0.0
  0
ENDSEC
  0
SECTION
  2
OBJECTS
  0
DICTIONARY
  5
C
330
0
100
AcDbDictionary
  3
ACAD_GROUP
350
D
  3
ACAD_MLINESTYLE
350
17
  0
DICTIONARY
  5
D
330
C
100
AcDbDictionary
  0
DICTIONARY
  5
1A
330
C
100
AcDbDictionary
  0
DICTIONARY
  5
17
330
C
100
AcDbDictionary
  3
STANDARD
350
18
  0
DICTIONARY
  5
19
330
C
100
AcDbDictionary
  0
ENDSEC
  0
EOF
