<?xml version="1.0" encoding="UTF-8" standalone="no"?>
<!-- Created with Inkscape (http://www.inkscape.org/) -->

<svg
   xmlns:dc="http://purl.org/dc/elements/1.1/"
   xmlns:cc="http://creativecommons.org/ns#"
   xmlns:rdf="http://www.w3.org/1999/02/22-rdf-syntax-ns#"
   xmlns:svg="http://www.w3.org/2000/svg"
   xmlns="http://www.w3.org/2000/svg"
   xmlns:sodipodi="http://sodipodi.sourceforge.net/DTD/sodipodi-0.dtd"
   xmlns:inkscape="http://www.inkscape.org/namespaces/inkscape"
   width="420mm"
   height="297mm"
   viewBox="0 0 420.00001 297"
   id="svg3353"
   version="1.1"
   inkscape:version="0.91pre2 r13516"
   sodipodi:docname="panel-phablet-surround-2-paths.svg">
  <defs
     id="defs3355" />
  <sodipodi:namedview
     inkscape:document-units="mm"
     pagecolor="#ffffff"
     bordercolor="#666666"
     borderopacity="1.0"
     inkscape:pageopacity="0.0"
     inkscape:pageshadow="2"
     inkscape:zoom="0.61399264"
     inkscape:cx="247.32608"
     inkscape:cy="380"
     inkscape:current-layer="layer1"
     id="namedview3357"
     showgrid="false"
     showguides="false"
     gridtolerance="10"
     inkscape:window-width="1918"
     inkscape:window-height="1078"
     inkscape:window-x="0"
     inkscape:window-y="0"
     inkscape:window-maximized="0" />
  <metadata
     id="metadata3359">
    <rdf:RDF>
      <cc:Work
         rdf:about="">
        <dc:format>image/svg+xml</dc:format>
        <dc:type
           rdf:resource="http://purl.org/dc/dcmitype/StillImage" />
        <dc:title></dc:title>
        <cc:license
           rdf:resource="http://creativecommons.org/licenses/by/3.0/" />
      </cc:Work>
      <cc:License
         rdf:about="http://creativecommons.org/licenses/by/3.0/">
        <cc:permits
           rdf:resource="http://creativecommons.org/ns#Reproduction" />
        <cc:permits
           rdf:resource="http://creativecommons.org/ns#Distribution" />
        <cc:requires
           rdf:resource="http://creativecommons.org/ns#Notice" />
        <cc:requires
           rdf:resource="http://creativecommons.org/ns#Attribution" />
        <cc:permits
           rdf:resource="http://creativecommons.org/ns#DerivativeWorks" />
      </cc:License>
    </rdf:RDF>
  </metadata>
  <g
     inkscape:label="Layer 1"
     inkscape:groupmode="layer"
     id="layer1"
     transform="translate(0,87)">
    <path
       style="opacity:0.37000002;fill:#2c05e7;fill-opacity:0.23529412;stroke:#197a71;stroke-width:0;stroke-linecap:round;stroke-miterlimit:4;stroke-dasharray:none;stroke-dashoffset:0;stroke-opacity:1"
       d="m 5.000005,79.999992 219.999995,0 c 2.77,0 5,2.23 5,5 l 0,119.999998 c 0,2.77 -2.23,5 -5,5 l -219.999995,0 c -2.77,0 -5.0000000000001,-2.23 -5.0000000000001,-5 l 0,-119.999998 c 0,-2.77 2.2300000000001,-5 5.0000000000001,-5 z"
       id="rect3362" />
    <path
       style="opacity:0.37000002;fill:#2c05e7;fill-opacity:0.23529412;stroke:#197a71;stroke-width:0;stroke-linecap:round;stroke-miterlimit:4;stroke-dasharray:none;stroke-dashoffset:0;stroke-opacity:1"
       d="m 25.999996,90.999992 178.000024,0 c 2.76999,0 4.99999,2.229996 4.99999,4.99999 l 0,99.000018 c 0,2.77 -2.23,4.99999 -4.99999,4.99999 l -178.000024,0 c -2.769995,0 -4.99999,-2.22999 -4.99999,-4.99999 l 0,-99.000018 c 0,-2.769994 2.229995,-4.99999 4.99999,-4.99999 z"
       id="rect4166" />
    <path
       style="opacity:0.37000002;fill:#2c05e7;fill-opacity:0.23529412;stroke:#197a71;stroke-width:0;stroke-linecap:round;stroke-miterlimit:4;stroke-dasharray:none;stroke-dashoffset:0;stroke-opacity:1"
       d="m 5.000005,-70.000008 219.999995,0 c 2.77,0 5,2.23 5,5 l 0,120 c 0,2.77 -2.23,5 -5,5 l -219.999995,0 c -2.77,0 -5.0000000000001,-2.23 -5.0000000000001,-5 l 0,-120 c 0,-2.77 2.2300000000001,-5 5.0000000000001,-5 z"
       id="rect4174" />
    <path
       style="opacity:0.37000002;fill:#2c05e7;fill-opacity:0.23529412;stroke:#197a71;stroke-width:0;stroke-linecap:round;stroke-miterlimit:4;stroke-dasharray:none;stroke-dashoffset:0;stroke-opacity:1"
       d="m 41.999994,-49.000004 146.000016,0 c 2.77,0 4.99999,2.229996 4.99999,4.99999 l 0,78.00002 c 0,2.769995 -2.22999,4.99999 -4.99999,4.99999 l -146.000016,0 c -2.769995,0 -4.99999,-2.229995 -4.99999,-4.99999 l 0,-78.00002 c 0,-2.769994 2.229995,-4.99999 4.99999,-4.99999 z"
       id="rect4176" />
  </g>
</svg>
